<?xml version="1.0" encoding="UTF-8" standalone="no"?>
<svg
   id="Layer_1"
   data-name="Layer 1"
   viewBox="0 0 544.98999 594.35999"
   version="1.1"
   sodipodi:docname="TimerbookLogo.svg"
   width="544.98999"
   height="594.35999"
   inkscape:version="1.4.3 (0d15f75042, 2025-12-25)"
   xmlns:inkscape="http://www.inkscape.org/namespaces/inkscape"
   xmlns:sodipodi="http://sodipodi.sourceforge.net/DTD/sodipodi-0.dtd"
   xmlns="http://www.w3.org/2000/svg"
   xmlns:svg="http://www.w3.org/2000/svg">
  <sodipodi:namedview
     id="namedview109"
     pagecolor="#ffffff"
     bordercolor="#000000"
     borderopacity="0.25"
     inkscape:showpageshadow="2"
     inkscape:pageopacity="0.0"
     inkscape:pagecheckerboard="0"
     inkscape:deskcolor="#d1d1d1"
     showguides="true"
     inkscape:zoom="0.27140299"
     inkscape:cx="138.17091"
     inkscape:cy="490.04618"
     inkscape:window-width="1536"
     inkscape:window-height="795"
     inkscape:window-x="0"
     inkscape:window-y="0"
     inkscape:window-maximized="1"
     inkscape:current-layer="Layer_1" />
  <defs
     id="defs1">
    <style
       id="style1">
      .cls-1, .cls-2, .cls-3, .cls-4, .cls-5, .cls-6, .cls-7, .cls-8, .cls-9, .cls-10, .cls-11, .cls-12, .cls-13, .cls-14 {
        stroke-miterlimit: 10;
      }

      .cls-1, .cls-2, .cls-3, .cls-5, .cls-7, .cls-9, .cls-10, .cls-13, .cls-14 {
        stroke-linecap: round;
      }

      .cls-1, .cls-2, .cls-4, .cls-8, .cls-13, .cls-14 {
        stroke: #2b4c8c;
      }

      .cls-1, .cls-3, .cls-4, .cls-12, .cls-14 {
        stroke-width: 30px;
      }

      .cls-1, .cls-15 {
        fill: #0000b2;
      }

      .cls-2, .cls-3, .cls-4, .cls-5, .cls-6, .cls-7, .cls-8, .cls-9, .cls-10, .cls-11, .cls-12, .cls-13, .cls-14 {
        fill: none;
      }

      .cls-2, .cls-5 {
        stroke-width: 10px;
      }

      .cls-16 {
        fill: #2b4c8c;
      }

      .cls-3, .cls-5, .cls-6, .cls-7, .cls-10, .cls-11, .cls-12 {
        stroke: #fff;
      }

      .cls-17 {
        fill: #fff;
      }

      .cls-7, .cls-9 {
        stroke-width: 5px;
      }

      .cls-8, .cls-11 {
        stroke-linecap: square;
        stroke-width: 15px;
      }

      .cls-9 {
        stroke: #94d7f2;
      }

      .cls-10, .cls-13 {
        stroke-width: 16px;
      }
    </style>
  </defs>
  <g
     id="g95"
     transform="translate(-680.44,-215.57)">
    <g
       id="g21">
      <g
         id="g2">
        <path
           class="cls-17"
           d="m 952.93,809.43 c -72.65,0 -140.96,-28.29 -192.33,-79.67 -51.37,-51.38 -79.66,-119.68 -79.66,-192.33 0,-72.65 28.29,-140.96 79.66,-192.33 51.37,-51.37 119.68,-79.67 192.33,-79.67 72.65,0 140.96,28.29 192.33,79.67 51.37,51.37 79.67,119.68 79.67,192.33 0,72.65 -28.29,140.96 -79.67,192.33 -51.37,51.37 -119.68,79.67 -192.33,79.67 z"
           id="path1" />
        <path
           class="cls-6"
           d="m 952.93,809.43 c -72.65,0 -140.96,-28.29 -192.33,-79.67 -51.37,-51.38 -79.66,-119.68 -79.66,-192.33 0,-72.65 28.29,-140.96 79.66,-192.33 51.37,-51.37 119.68,-79.67 192.33,-79.67 72.65,0 140.96,28.29 192.33,79.67 51.37,51.37 79.67,119.68 79.67,192.33 0,72.65 -28.29,140.96 -79.67,192.33 -51.37,51.37 -119.68,79.67 -192.33,79.67 z"
           id="path2" />
      </g>
      <path
         class="cls-11"
         d="m 950.97,802.25 c -41.81,0 -83.37,-10.17 -120.2,-29.4 -35.62,-18.6 -66.94,-45.68 -90.55,-78.31 -6.48,-8.95 -4.47,-21.45 4.48,-27.93 8.95,-6.48 21.45,-4.47 27.93,4.47 41.31,57.08 107.99,91.16 178.35,91.16 70.36,0 141.15,-34.93 181.85,-91.16 6.48,-8.95 18.98,-10.95 27.93,-4.47 8.95,6.48 10.95,18.98 4.47,27.93 -23.5,32.46 -55.48,59.57 -92.49,78.41 -37.67,19.17 -79.78,29.3 -121.76,29.3 z"
         id="path3" />
      <path
         class="cls-12"
         d="m 759.98,419.92 c -3.84,0 -7.73,-1.11 -11.16,-3.41 -9.16,-6.17 -11.58,-18.6 -5.41,-27.76 21.56,-32 52.48,-59.21 89.42,-78.7 37.28,-19.66 78.13,-30.05 118.14,-30.05 40.01,0 83.37,10.16 120.2,29.4 35.62,18.6 66.93,45.68 90.55,78.3 6.48,8.95 4.47,21.45 -4.47,27.93 -8.95,6.48 -21.45,4.47 -27.93,-4.47 -41.31,-57.08 -107.98,-91.15 -178.34,-91.15 -70.36,0 -137.68,36.61 -174.38,91.09 -3.86,5.73 -10.18,8.83 -16.61,8.83 z"
         id="path4" />
      <path
         class="cls-5"
         d="m 1166.93,678.3 c -3.39,0 -6.83,-0.86 -9.98,-2.68 L 992.15,580.47 C 977.52,572.02 968.79,556.9 968.79,540 c 0,-16.9 8.73,-32.02 23.36,-40.47 l 164.8,-95.15 c 9.57,-5.52 21.8,-2.25 27.32,7.32 5.52,9.57 2.25,21.8 -7.32,27.32 l -164.8,95.15 c -2.93,1.69 -3.36,4.38 -3.36,5.83 0,1.45 0.44,4.14 3.36,5.83 l 164.8,95.15 c 9.57,5.52 12.84,17.75 7.32,27.32 -3.7,6.42 -10.43,10 -17.34,10 z"
         id="path5" />
      <path
         class="cls-7"
         d="m 1191.68,632.45 c -2.27,0 -4.58,-0.39 -6.84,-1.21 l -169.53,-61.71 c -13.65,-4.97 -22.47,-17.56 -22.47,-32.09 0,-14.53 8.82,-27.12 22.47,-32.09 l 169.53,-61.71 c 10.38,-3.78 21.86,1.57 25.63,11.95 3.78,10.38 -1.57,21.86 -11.95,25.63 l -154.43,56.21 154.43,56.21 c 10.38,3.78 15.73,15.25 11.95,25.63 -2.96,8.12 -10.63,13.16 -18.8,13.17 z"
         id="path6" />
      <path
         class="cls-7"
         d="m 1198.45,607.37 c -1.71,0 -3.46,-0.22 -5.19,-0.69 l -146.91,-39.37 c -13.12,-3.52 -21.94,-15.01 -21.94,-28.59 0,-13.59 8.82,-25.08 21.94,-28.6 l 146.91,-39.37 c 10.67,-2.86 21.64,3.47 24.5,14.14 2.86,10.67 -3.47,21.64 -14.14,24.49 l -109.44,29.32 109.44,29.32 c 10.67,2.86 17,13.83 14.14,24.5 -2.39,8.93 -10.48,14.83 -19.31,14.83 z"
         id="path7" />
      <path
         class="cls-5"
         d="m 736.58,678.3 c -6.91,0 -13.63,-3.59 -17.34,-10 -5.52,-9.57 -2.25,-21.8 7.32,-27.32 l 164.8,-95.15 c 2.93,-1.69 3.36,-4.38 3.36,-5.83 0,-1.45 -0.44,-4.14 -3.36,-5.83 l -164.8,-95.15 c -9.57,-5.52 -12.84,-17.75 -7.32,-27.32 5.52,-9.57 17.75,-12.85 27.32,-7.32 l 164.8,95.15 c 14.63,8.45 23.36,23.57 23.36,40.47 0,16.9 -8.73,32.02 -23.36,40.47 l -164.8,95.15 c -3.15,1.82 -6.59,2.68 -9.98,2.68 z"
         id="path8" />
      <path
         class="cls-7"
         d="m 714.32,635.01 c -8.17,0 -15.84,-5.04 -18.8,-13.17 -3.78,-10.38 1.57,-21.86 11.95,-25.63 L 861.89,540 707.47,483.79 c -10.38,-3.78 -15.73,-15.25 -11.95,-25.63 3.78,-10.38 15.26,-15.73 25.63,-11.95 l 169.53,61.71 c 13.65,4.97 22.47,17.56 22.47,32.09 0,14.53 -8.82,27.12 -22.47,32.09 l -169.53,61.71 c -2.26,0.82 -4.57,1.21 -6.84,1.21 z"
         id="path9" />
      <path
         class="cls-7"
         d="m 707.56,607.36 c -8.83,0 -16.91,-5.89 -19.31,-14.83 -2.86,-10.67 3.47,-21.64 14.14,-24.5 L 811.83,538.71 702.39,509.39 c -10.67,-2.86 -17,-13.83 -14.14,-24.49 2.86,-10.66 13.83,-17 24.49,-14.14 l 146.91,39.37 c 13.12,3.52 21.94,15.01 21.94,28.59 0,13.58 -8.82,25.08 -21.94,28.59 l -146.91,39.37 c -1.73,0.46 -3.48,0.69 -5.19,0.69 z"
         id="path10" />
      <path
         class="cls-3"
         d="m 983.72,270.57 h -65.49 c -11.05,0 -20,-8.95 -20,-20 0,-11.05 8.95,-20 20,-20 h 65.49 c 11.05,0 20,8.95 20,20 0,11.05 -8.95,20 -20,20 z"
         id="path11" />
      <path
         class="cls-12"
         d="m 950.97,320 c -11.05,0 -20,-8.95 -20,-20 v -35.85 c 0,-11.05 8.95,-20 20,-20 11.05,0 20,8.95 20,20 V 300 c 0,11.05 -8.95,20 -20,20 z"
         id="path12" />
      <g
         id="g14">
        <path
           class="cls-16"
           d="m 950.98,785.08 c -51.76,0 -101.25,-16.12 -143.12,-46.61 -5.4,-3.93 -8.48,-10.3 -8.21,-16.98 0.27,-6.68 3.86,-12.78 9.56,-16.26 l 93.01,-56.77 c 10.99,-6.71 17.82,-18.88 17.82,-31.76 v -71.1 c 0,-9.32 -5.01,-18.01 -13.09,-22.67 l -57.84,-33.4 c -6.5,-3.75 -10.35,-10.83 -9.97,-18.33 0.38,-7.5 4.92,-14.15 11.77,-17.23 8.54,-3.84 17.57,-5.71 27.61,-5.71 13.59,0 26.56,3.47 39.1,6.83 11.51,3.08 22.39,5.99 32.68,5.99 10.29,0 21.2,-2.92 32.76,-6 12.61,-3.37 25.65,-6.85 39.29,-6.85 10.05,0 19.07,1.86 27.59,5.69 6.85,3.08 11.4,9.73 11.78,17.23 0.38,7.5 -3.47,14.58 -9.97,18.33 l -57.84,33.39 c -8.07,4.66 -13.09,13.35 -13.09,22.67 v 69.44 c 0,13.38 7.23,25.79 18.87,32.38 l 96.41,54.6 c 5.85,3.31 9.64,9.34 10.1,16.05 0.46,6.71 -2.49,13.19 -7.83,17.27 -42.75,32.57 -93.72,49.79 -147.38,49.79 z"
           id="path13" />
        <path
           class="cls-6"
           d="m 950.98,785.08 c -51.76,0 -101.25,-16.12 -143.12,-46.61 -5.4,-3.93 -8.48,-10.3 -8.21,-16.98 0.27,-6.68 3.86,-12.78 9.56,-16.26 l 93.01,-56.77 c 10.99,-6.71 17.82,-18.88 17.82,-31.76 v -71.1 c 0,-9.32 -5.01,-18.01 -13.09,-22.67 l -57.84,-33.4 c -6.5,-3.75 -10.35,-10.83 -9.97,-18.33 0.38,-7.5 4.92,-14.15 11.77,-17.23 8.54,-3.84 17.57,-5.71 27.61,-5.71 13.59,0 26.56,3.47 39.1,6.83 11.51,3.08 22.39,5.99 32.68,5.99 10.29,0 21.2,-2.92 32.76,-6 12.61,-3.37 25.65,-6.85 39.29,-6.85 10.05,0 19.07,1.86 27.59,5.69 6.85,3.08 11.4,9.73 11.78,17.23 0.38,7.5 -3.47,14.58 -9.97,18.33 l -57.84,33.39 c -8.07,4.66 -13.09,13.35 -13.09,22.67 v 69.44 c 0,13.38 7.23,25.79 18.87,32.38 l 96.41,54.6 c 5.85,3.31 9.64,9.34 10.1,16.05 0.46,6.71 -2.49,13.19 -7.83,17.27 -42.75,32.57 -93.72,49.79 -147.38,49.79 z"
           id="path14" />
      </g>
      <g
         id="g16">
        <path
           class="cls-15"
           d="m 818.47,350.61 c -6.91,0 -13.63,-3.59 -17.34,-10 l -8.93,-15.47 c -5.52,-9.57 -2.25,-21.8 7.32,-27.32 9.57,-5.52 21.8,-2.25 27.32,7.32 l 8.93,15.47 c 5.52,9.57 2.25,21.8 -7.32,27.32 -3.15,1.82 -6.59,2.68 -9.98,2.68 z"
           id="path15" />
        <path
           class="cls-3"
           d="m 818.47,350.61 c -6.91,0 -13.63,-3.59 -17.34,-10 l -8.93,-15.47 c -5.52,-9.57 -2.25,-21.8 7.32,-27.32 9.57,-5.52 21.8,-2.25 27.32,7.32 l 8.93,15.47 c 5.52,9.57 2.25,21.8 -7.32,27.32 -3.15,1.82 -6.59,2.68 -9.98,2.68 z"
           id="path16" />
      </g>
      <path
         class="cls-10"
         d="m 950.97,349.71 c -11.05,0 -20,-8.95 -20,-20 V 300 c 0,-11.05 8.95,-20 20,-20 11.05,0 20,8.95 20,20 v 29.71 c 0,11.05 -8.95,20 -20,20 z"
         id="path17" />
      <path
         class="cls-10"
         d="m 1016.71,362.08 c -1.71,0 -3.46,-0.22 -5.19,-0.69 -10.67,-2.86 -17,-13.83 -14.14,-24.49 l 8.07,-30.11 c 2.86,-10.67 13.83,-17 24.49,-14.14 10.67,2.86 17,13.83 14.14,24.49 l -8.07,30.11 c -2.39,8.94 -10.48,14.83 -19.31,14.83 z"
         id="path18" />
      <path
         class="cls-10"
         d="m 1076.37,390.14 c -3.39,0 -6.83,-0.86 -9.98,-2.68 -9.57,-5.52 -12.84,-17.75 -7.32,-27.32 L 1073.58,335 c 5.52,-9.57 17.75,-12.84 27.32,-7.32 9.57,5.52 12.84,17.75 7.32,27.32 l -14.51,25.14 c -3.7,6.42 -10.43,10 -17.34,10 z"
         id="path19" />
      <path
         class="cls-10"
         d="m 885.24,362.08 c -8.83,0 -16.91,-5.89 -19.31,-14.83 l -7.41,-27.65 c -2.86,-10.67 3.47,-21.64 14.14,-24.49 10.67,-2.86 21.64,3.47 24.49,14.14 l 7.41,27.65 c 2.86,10.67 -3.47,21.64 -14.14,24.49 -1.73,0.46 -3.48,0.69 -5.19,0.69 z"
         id="path20" />
      <path
         class="cls-10"
         d="m 827.18,392.29 c -6.75,0 -13.34,-3.42 -17.11,-9.61 L 795.7,359.04 c -5.74,-9.44 -2.74,-21.74 6.7,-27.48 9.44,-5.74 21.74,-2.74 27.48,6.7 l 14.37,23.64 c 5.74,9.44 2.74,21.74 -6.7,27.48 -3.25,1.97 -6.83,2.91 -10.37,2.91 z"
         id="path21" />
    </g>
    <g
       id="g58">
      <g
         id="g23">
        <path
           class="cls-17"
           d="m 952.93,809.43 c -72.65,0 -140.96,-28.29 -192.33,-79.67 -51.37,-51.38 -79.66,-119.68 -79.66,-192.33 0,-72.65 28.29,-140.96 79.66,-192.33 51.37,-51.37 119.68,-79.67 192.33,-79.67 72.65,0 140.96,28.29 192.33,79.67 51.37,51.37 79.67,119.68 79.67,192.33 0,72.65 -28.29,140.96 -79.67,192.33 -51.37,51.37 -119.68,79.67 -192.33,79.67 z"
           id="path22" />
        <path
           class="cls-17"
           d="m 952.93,809.43 c -72.65,0 -140.96,-28.29 -192.33,-79.67 -51.37,-51.38 -79.66,-119.68 -79.66,-192.33 0,-72.65 28.29,-140.96 79.66,-192.33 51.37,-51.37 119.68,-79.67 192.33,-79.67 72.65,0 140.96,28.29 192.33,79.67 51.37,51.37 79.67,119.68 79.67,192.33 0,72.65 -28.29,140.96 -79.67,192.33 -51.37,51.37 -119.68,79.67 -192.33,79.67 z"
           id="path23" />
      </g>
      <g
         id="g25">
        <path
           class="cls-17"
           d="m 950.97,802.25 c -41.81,0 -83.37,-10.17 -120.2,-29.4 -35.62,-18.6 -66.94,-45.68 -90.55,-78.31 -6.48,-8.95 -4.47,-21.45 4.48,-27.93 8.95,-6.48 21.45,-4.47 27.93,4.47 41.31,57.08 107.99,91.16 178.35,91.16 70.36,0 141.15,-34.93 181.85,-91.16 6.48,-8.95 18.98,-10.95 27.93,-4.47 8.95,6.48 10.95,18.98 4.47,27.93 -23.5,32.46 -55.48,59.57 -92.49,78.41 -37.67,19.17 -79.78,29.3 -121.76,29.3 z"
           id="path24" />
        <path
           class="cls-17"
           d="m 950.97,802.25 c -41.81,0 -83.37,-10.17 -120.2,-29.4 -35.62,-18.6 -66.94,-45.68 -90.55,-78.31 -6.48,-8.95 -4.47,-21.45 4.48,-27.93 8.95,-6.48 21.45,-4.47 27.93,4.47 41.31,57.08 107.99,91.16 178.35,91.16 70.36,0 141.15,-34.93 181.85,-91.16 6.48,-8.95 18.98,-10.95 27.93,-4.47 8.95,6.48 10.95,18.98 4.47,27.93 -23.5,32.46 -55.48,59.57 -92.49,78.41 -37.67,19.17 -79.78,29.3 -121.76,29.3 z"
           id="path25" />
      </g>
      <g
         id="g27">
        <path
           class="cls-17"
           d="m 759.98,419.92 c -3.84,0 -7.73,-1.11 -11.16,-3.41 -9.16,-6.17 -11.58,-18.6 -5.41,-27.76 21.56,-32 52.48,-59.21 89.42,-78.7 37.28,-19.66 78.13,-30.05 118.14,-30.05 40.01,0 83.37,10.16 120.2,29.4 35.62,18.6 66.93,45.68 90.55,78.3 6.48,8.95 4.47,21.45 -4.47,27.93 -8.95,6.48 -21.45,4.47 -27.93,-4.47 -41.31,-57.08 -107.98,-91.15 -178.34,-91.15 -70.36,0 -137.68,36.61 -174.38,91.09 -3.86,5.73 -10.18,8.83 -16.61,8.83 z"
           id="path26" />
        <path
           class="cls-17"
           d="m 759.98,419.92 c -3.84,0 -7.73,-1.11 -11.16,-3.41 -9.16,-6.17 -11.58,-18.6 -5.41,-27.76 21.56,-32 52.48,-59.21 89.42,-78.7 37.28,-19.66 78.13,-30.05 118.14,-30.05 40.01,0 83.37,10.16 120.2,29.4 35.62,18.6 66.93,45.68 90.55,78.3 6.48,8.95 4.47,21.45 -4.47,27.93 -8.95,6.48 -21.45,4.47 -27.93,-4.47 -41.31,-57.08 -107.98,-91.15 -178.34,-91.15 -70.36,0 -137.68,36.61 -174.38,91.09 -3.86,5.73 -10.18,8.83 -16.61,8.83 z"
           id="path27" />
      </g>
      <g
         id="g29">
        <path
           class="cls-17"
           d="m 1166.93,678.3 c -3.39,0 -6.83,-0.86 -9.98,-2.68 L 992.15,580.47 C 977.52,572.02 968.79,556.9 968.79,540 c 0,-16.9 8.73,-32.02 23.36,-40.47 l 164.8,-95.15 c 9.57,-5.52 21.8,-2.25 27.32,7.32 5.52,9.57 2.25,21.8 -7.32,27.32 l -164.8,95.15 c -2.93,1.69 -3.36,4.38 -3.36,5.83 0,1.45 0.44,4.14 3.36,5.83 l 164.8,95.15 c 9.57,5.52 12.84,17.75 7.32,27.32 -3.7,6.42 -10.43,10 -17.34,10 z"
           id="path28" />
        <path
           class="cls-17"
           d="m 1166.93,678.3 c -3.39,0 -6.83,-0.86 -9.98,-2.68 L 992.15,580.47 C 977.52,572.02 968.79,556.9 968.79,540 c 0,-16.9 8.73,-32.02 23.36,-40.47 l 164.8,-95.15 c 9.57,-5.52 21.8,-2.25 27.32,7.32 5.52,9.57 2.25,21.8 -7.32,27.32 l -164.8,95.15 c -2.93,1.69 -3.36,4.38 -3.36,5.83 0,1.45 0.44,4.14 3.36,5.83 l 164.8,95.15 c 9.57,5.52 12.84,17.75 7.32,27.32 -3.7,6.42 -10.43,10 -17.34,10 z"
           id="path29" />
      </g>
      <g
         id="g31">
        <path
           class="cls-17"
           d="m 1191.68,632.45 c -2.27,0 -4.58,-0.39 -6.84,-1.21 l -169.53,-61.71 c -13.65,-4.97 -22.47,-17.56 -22.47,-32.09 0,-14.53 8.82,-27.12 22.47,-32.09 l 169.53,-61.71 c 10.38,-3.78 21.86,1.57 25.63,11.95 3.78,10.38 -1.57,21.86 -11.95,25.63 l -154.43,56.21 154.43,56.21 c 10.38,3.78 15.73,15.25 11.95,25.63 -2.96,8.12 -10.63,13.16 -18.8,13.17 z"
           id="path30" />
        <path
           class="cls-17"
           d="m 1191.68,632.45 c -2.27,0 -4.58,-0.39 -6.84,-1.21 l -169.53,-61.71 c -13.65,-4.97 -22.47,-17.56 -22.47,-32.09 0,-14.53 8.82,-27.12 22.47,-32.09 l 169.53,-61.71 c 10.38,-3.78 21.86,1.57 25.63,11.95 3.78,10.38 -1.57,21.86 -11.95,25.63 l -154.43,56.21 154.43,56.21 c 10.38,3.78 15.73,15.25 11.95,25.63 -2.96,8.12 -10.63,13.16 -18.8,13.17 z"
           id="path31" />
      </g>
      <g
         id="g33">
        <path
           class="cls-17"
           d="m 1198.45,607.37 c -1.71,0 -3.46,-0.22 -5.19,-0.69 l -146.91,-39.37 c -13.12,-3.52 -21.94,-15.01 -21.94,-28.59 0,-13.59 8.82,-25.08 21.94,-28.6 l 146.91,-39.37 c 10.67,-2.86 21.64,3.47 24.5,14.14 2.86,10.67 -3.47,21.64 -14.14,24.49 l -109.44,29.32 109.44,29.32 c 10.67,2.86 17,13.83 14.14,24.5 -2.39,8.93 -10.48,14.83 -19.31,14.83 z"
           id="path32" />
        <path
           class="cls-17"
           d="m 1198.45,607.37 c -1.71,0 -3.46,-0.22 -5.19,-0.69 l -146.91,-39.37 c -13.12,-3.52 -21.94,-15.01 -21.94,-28.59 0,-13.59 8.82,-25.08 21.94,-28.6 l 146.91,-39.37 c 10.67,-2.86 21.64,3.47 24.5,14.14 2.86,10.67 -3.47,21.64 -14.14,24.49 l -109.44,29.32 109.44,29.32 c 10.67,2.86 17,13.83 14.14,24.5 -2.39,8.93 -10.48,14.83 -19.31,14.83 z"
           id="path33" />
      </g>
      <g
         id="g35">
        <path
           class="cls-17"
           d="m 736.58,678.3 c -6.91,0 -13.63,-3.59 -17.34,-10 -5.52,-9.57 -2.25,-21.8 7.32,-27.32 l 164.8,-95.15 c 2.93,-1.69 3.36,-4.38 3.36,-5.83 0,-1.45 -0.44,-4.14 -3.36,-5.83 l -164.8,-95.15 c -9.57,-5.52 -12.84,-17.75 -7.32,-27.32 5.52,-9.57 17.75,-12.85 27.32,-7.32 l 164.8,95.15 c 14.63,8.45 23.36,23.57 23.36,40.47 0,16.9 -8.73,32.02 -23.36,40.47 l -164.8,95.15 c -3.15,1.82 -6.59,2.68 -9.98,2.68 z"
           id="path34" />
        <path
           class="cls-17"
           d="m 736.58,678.3 c -6.91,0 -13.63,-3.59 -17.34,-10 -5.52,-9.57 -2.25,-21.8 7.32,-27.32 l 164.8,-95.15 c 2.93,-1.69 3.36,-4.38 3.36,-5.83 0,-1.45 -0.44,-4.14 -3.36,-5.83 l -164.8,-95.15 c -9.57,-5.52 -12.84,-17.75 -7.32,-27.32 5.52,-9.57 17.75,-12.85 27.32,-7.32 l 164.8,95.15 c 14.63,8.45 23.36,23.57 23.36,40.47 0,16.9 -8.73,32.02 -23.36,40.47 l -164.8,95.15 c -3.15,1.82 -6.59,2.68 -9.98,2.68 z"
           id="path35" />
      </g>
      <g
         id="g37">
        <path
           class="cls-17"
           d="m 714.32,635.01 c -8.17,0 -15.84,-5.04 -18.8,-13.17 -3.78,-10.38 1.57,-21.86 11.95,-25.63 L 861.89,540 707.47,483.79 c -10.38,-3.78 -15.73,-15.25 -11.95,-25.63 3.78,-10.38 15.26,-15.73 25.63,-11.95 l 169.53,61.71 c 13.65,4.97 22.47,17.56 22.47,32.09 0,14.53 -8.82,27.12 -22.47,32.09 l -169.53,61.71 c -2.26,0.82 -4.57,1.21 -6.84,1.21 z"
           id="path36" />
        <path
           class="cls-17"
           d="m 714.32,635.01 c -8.17,0 -15.84,-5.04 -18.8,-13.17 -3.78,-10.38 1.57,-21.86 11.95,-25.63 L 861.89,540 707.47,483.79 c -10.38,-3.78 -15.73,-15.25 -11.95,-25.63 3.78,-10.38 15.26,-15.73 25.63,-11.95 l 169.53,61.71 c 13.65,4.97 22.47,17.56 22.47,32.09 0,14.53 -8.82,27.12 -22.47,32.09 l -169.53,61.71 c -2.26,0.82 -4.57,1.21 -6.84,1.21 z"
           id="path37" />
      </g>
      <g
         id="g39">
        <path
           class="cls-17"
           d="m 707.56,607.36 c -8.83,0 -16.91,-5.89 -19.31,-14.83 -2.86,-10.67 3.47,-21.64 14.14,-24.5 L 811.83,538.71 702.39,509.39 c -10.67,-2.86 -17,-13.83 -14.14,-24.49 2.86,-10.66 13.83,-17 24.49,-14.14 l 146.91,39.37 c 13.12,3.52 21.94,15.01 21.94,28.59 0,13.58 -8.82,25.08 -21.94,28.59 l -146.91,39.37 c -1.73,0.46 -3.48,0.69 -5.19,0.69 z"
           id="path38" />
        <path
           class="cls-17"
           d="m 707.56,607.36 c -8.83,0 -16.91,-5.89 -19.31,-14.83 -2.86,-10.67 3.47,-21.64 14.14,-24.5 L 811.83,538.71 702.39,509.39 c -10.67,-2.86 -17,-13.83 -14.14,-24.49 2.86,-10.66 13.83,-17 24.49,-14.14 l 146.91,39.37 c 13.12,3.52 21.94,15.01 21.94,28.59 0,13.58 -8.82,25.08 -21.94,28.59 l -146.91,39.37 c -1.73,0.46 -3.48,0.69 -5.19,0.69 z"
           id="path39" />
      </g>
      <g
         id="g41">
        <path
           class="cls-17"
           d="m 983.72,270.57 h -65.49 c -11.05,0 -20,-8.95 -20,-20 0,-11.05 8.95,-20 20,-20 h 65.49 c 11.05,0 20,8.95 20,20 0,11.05 -8.95,20 -20,20 z"
           id="path40" />
        <path
           class="cls-17"
           d="m 983.72,270.57 h -65.49 c -11.05,0 -20,-8.95 -20,-20 0,-11.05 8.95,-20 20,-20 h 65.49 c 11.05,0 20,8.95 20,20 0,11.05 -8.95,20 -20,20 z"
           id="path41" />
      </g>
      <g
         id="g43">
        <path
           class="cls-17"
           d="m 950.97,320 c -11.05,0 -20,-8.95 -20,-20 v -35.85 c 0,-11.05 8.95,-20 20,-20 11.05,0 20,8.95 20,20 V 300 c 0,11.05 -8.95,20 -20,20 z"
           id="path42" />
        <path
           class="cls-17"
           d="m 950.97,320 c -11.05,0 -20,-8.95 -20,-20 v -35.85 c 0,-11.05 8.95,-20 20,-20 11.05,0 20,8.95 20,20 V 300 c 0,11.05 -8.95,20 -20,20 z"
           id="path43" />
      </g>
      <g
         id="g45">
        <path
           class="cls-17"
           d="m 950.98,785.08 c -51.76,0 -101.25,-16.12 -143.12,-46.61 -5.4,-3.93 -8.48,-10.3 -8.21,-16.98 0.27,-6.68 3.86,-12.78 9.56,-16.26 l 93.01,-56.77 c 10.99,-6.71 17.82,-18.88 17.82,-31.76 v -71.1 c 0,-9.32 -5.01,-18.01 -13.09,-22.67 l -57.84,-33.4 c -6.5,-3.75 -10.35,-10.83 -9.97,-18.33 0.38,-7.5 4.92,-14.15 11.77,-17.23 8.54,-3.84 17.57,-5.71 27.61,-5.71 13.59,0 26.56,3.47 39.1,6.83 11.51,3.08 22.39,5.99 32.68,5.99 10.29,0 21.2,-2.92 32.76,-6 12.61,-3.37 25.65,-6.85 39.29,-6.85 10.05,0 19.07,1.86 27.59,5.69 6.85,3.08 11.4,9.73 11.78,17.23 0.38,7.5 -3.47,14.58 -9.97,18.33 l -57.84,33.39 c -8.07,4.66 -13.09,13.35 -13.09,22.67 v 69.44 c 0,13.38 7.23,25.79 18.87,32.38 l 96.41,54.6 c 5.85,3.31 9.64,9.34 10.1,16.05 0.46,6.71 -2.49,13.19 -7.83,17.27 -42.75,32.57 -93.72,49.79 -147.38,49.79 z"
           id="path44" />
        <path
           class="cls-17"
           d="m 950.98,785.08 c -51.76,0 -101.25,-16.12 -143.12,-46.61 -5.4,-3.93 -8.48,-10.3 -8.21,-16.98 0.27,-6.68 3.86,-12.78 9.56,-16.26 l 93.01,-56.77 c 10.99,-6.71 17.82,-18.88 17.82,-31.76 v -71.1 c 0,-9.32 -5.01,-18.01 -13.09,-22.67 l -57.84,-33.4 c -6.5,-3.75 -10.35,-10.83 -9.97,-18.33 0.38,-7.5 4.92,-14.15 11.77,-17.23 8.54,-3.84 17.57,-5.71 27.61,-5.71 13.59,0 26.56,3.47 39.1,6.83 11.51,3.08 22.39,5.99 32.68,5.99 10.29,0 21.2,-2.92 32.76,-6 12.61,-3.37 25.65,-6.85 39.29,-6.85 10.05,0 19.07,1.86 27.59,5.69 6.85,3.08 11.4,9.73 11.78,17.23 0.38,7.5 -3.47,14.58 -9.97,18.33 l -57.84,33.39 c -8.07,4.66 -13.09,13.35 -13.09,22.67 v 69.44 c 0,13.38 7.23,25.79 18.87,32.38 l 96.41,54.6 c 5.85,3.31 9.64,9.34 10.1,16.05 0.46,6.71 -2.49,13.19 -7.83,17.27 -42.75,32.57 -93.72,49.79 -147.38,49.79 z"
           id="path45" />
      </g>
      <g
         id="g47">
        <path
           class="cls-17"
           d="m 818.47,350.61 c -6.91,0 -13.63,-3.59 -17.34,-10 l -8.93,-15.47 c -5.52,-9.57 -2.25,-21.8 7.32,-27.32 9.57,-5.52 21.8,-2.25 27.32,7.32 l 8.93,15.47 c 5.52,9.57 2.25,21.8 -7.32,27.32 -3.15,1.82 -6.59,2.68 -9.98,2.68 z"
           id="path46" />
        <path
           class="cls-17"
           d="m 818.47,350.61 c -6.91,0 -13.63,-3.59 -17.34,-10 l -8.93,-15.47 c -5.52,-9.57 -2.25,-21.8 7.32,-27.32 9.57,-5.52 21.8,-2.25 27.32,7.32 l 8.93,15.47 c 5.52,9.57 2.25,21.8 -7.32,27.32 -3.15,1.82 -6.59,2.68 -9.98,2.68 z"
           id="path47" />
      </g>
      <g
         id="g49">
        <path
           class="cls-17"
           d="m 950.97,349.71 c -11.05,0 -20,-8.95 -20,-20 V 300 c 0,-11.05 8.95,-20 20,-20 11.05,0 20,8.95 20,20 v 29.71 c 0,11.05 -8.95,20 -20,20 z"
           id="path48" />
        <path
           class="cls-17"
           d="m 950.97,349.71 c -11.05,0 -20,-8.95 -20,-20 V 300 c 0,-11.05 8.95,-20 20,-20 11.05,0 20,8.95 20,20 v 29.71 c 0,11.05 -8.95,20 -20,20 z"
           id="path49" />
      </g>
      <g
         id="g51">
        <path
           class="cls-17"
           d="m 1016.71,362.08 c -1.71,0 -3.46,-0.22 -5.19,-0.69 -10.67,-2.86 -17,-13.83 -14.14,-24.49 l 8.07,-30.11 c 2.86,-10.67 13.83,-17 24.49,-14.14 10.67,2.86 17,13.83 14.14,24.49 l -8.07,30.11 c -2.39,8.94 -10.48,14.83 -19.31,14.83 z"
           id="path50" />
        <path
           class="cls-17"
           d="m 1016.71,362.08 c -1.71,0 -3.46,-0.22 -5.19,-0.69 -10.67,-2.86 -17,-13.83 -14.14,-24.49 l 8.07,-30.11 c 2.86,-10.67 13.83,-17 24.49,-14.14 10.67,2.86 17,13.83 14.14,24.49 l -8.07,30.11 c -2.39,8.94 -10.48,14.83 -19.31,14.83 z"
           id="path51" />
      </g>
      <g
         id="g53">
        <path
           class="cls-17"
           d="m 1076.37,390.14 c -3.39,0 -6.83,-0.86 -9.98,-2.68 -9.57,-5.52 -12.84,-17.75 -7.32,-27.32 L 1073.58,335 c 5.52,-9.57 17.75,-12.84 27.32,-7.32 9.57,5.52 12.84,17.75 7.32,27.32 l -14.51,25.14 c -3.7,6.42 -10.43,10 -17.34,10 z"
           id="path52" />
        <path
           class="cls-17"
           d="m 1076.37,390.14 c -3.39,0 -6.83,-0.86 -9.98,-2.68 -9.57,-5.52 -12.84,-17.75 -7.32,-27.32 L 1073.58,335 c 5.52,-9.57 17.75,-12.84 27.32,-7.32 9.57,5.52 12.84,17.75 7.32,27.32 l -14.51,25.14 c -3.7,6.42 -10.43,10 -17.34,10 z"
           id="path53" />
      </g>
      <g
         id="g55">
        <path
           class="cls-17"
           d="m 885.24,362.08 c -8.83,0 -16.91,-5.89 -19.31,-14.83 l -7.41,-27.65 c -2.86,-10.67 3.47,-21.64 14.14,-24.49 10.67,-2.86 21.64,3.47 24.49,14.14 l 7.41,27.65 c 2.86,10.67 -3.47,21.64 -14.14,24.49 -1.73,0.46 -3.48,0.69 -5.19,0.69 z"
           id="path54" />
        <path
           class="cls-17"
           d="m 885.24,362.08 c -8.83,0 -16.91,-5.89 -19.31,-14.83 l -7.41,-27.65 c -2.86,-10.67 3.47,-21.64 14.14,-24.49 10.67,-2.86 21.64,3.47 24.49,14.14 l 7.41,27.65 c 2.86,10.67 -3.47,21.64 -14.14,24.49 -1.73,0.46 -3.48,0.69 -5.19,0.69 z"
           id="path55" />
      </g>
      <g
         id="g57">
        <path
           class="cls-17"
           d="m 827.18,392.29 c -6.75,0 -13.34,-3.42 -17.11,-9.61 L 795.7,359.04 c -5.74,-9.44 -2.74,-21.74 6.7,-27.48 9.44,-5.74 21.74,-2.74 27.48,6.7 l 14.37,23.64 c 5.74,9.44 2.74,21.74 -6.7,27.48 -3.25,1.97 -6.83,2.91 -10.37,2.91 z"
           id="path56" />
        <path
           class="cls-17"
           d="m 827.18,392.29 c -6.75,0 -13.34,-3.42 -17.11,-9.61 L 795.7,359.04 c -5.74,-9.44 -2.74,-21.74 6.7,-27.48 9.44,-5.74 21.74,-2.74 27.48,6.7 l 14.37,23.64 c 5.74,9.44 2.74,21.74 -6.7,27.48 -3.25,1.97 -6.83,2.91 -10.37,2.91 z"
           id="path57" />
      </g>
    </g>
    <g
       id="g94">
      <g
         id="g59">
        <path
           class="cls-6"
           d="m 952.93,809.43 c -72.65,0 -140.96,-28.29 -192.33,-79.67 -51.37,-51.38 -79.66,-119.68 -79.66,-192.33 0,-72.65 28.29,-140.96 79.66,-192.33 51.37,-51.37 119.68,-79.67 192.33,-79.67 72.65,0 140.96,28.29 192.33,79.67 51.37,51.37 79.67,119.68 79.67,192.33 0,72.65 -28.29,140.96 -79.67,192.33 -51.37,51.37 -119.68,79.67 -192.33,79.67 z"
           id="path58" />
        <path
           class="cls-6"
           d="m 952.93,809.43 c -72.65,0 -140.96,-28.29 -192.33,-79.67 -51.37,-51.38 -79.66,-119.68 -79.66,-192.33 0,-72.65 28.29,-140.96 79.66,-192.33 51.37,-51.37 119.68,-79.67 192.33,-79.67 72.65,0 140.96,28.29 192.33,79.67 51.37,51.37 79.67,119.68 79.67,192.33 0,72.65 -28.29,140.96 -79.67,192.33 -51.37,51.37 -119.68,79.67 -192.33,79.67 z"
           id="path59" />
      </g>
      <g
         id="g61">
        <path
           class="cls-6"
           d="m 950.97,802.25 c -41.81,0 -83.37,-10.17 -120.2,-29.4 -35.62,-18.6 -66.94,-45.68 -90.55,-78.31 -6.48,-8.95 -4.47,-21.45 4.48,-27.93 8.95,-6.48 21.45,-4.47 27.93,4.47 41.31,57.08 107.99,91.16 178.35,91.16 70.36,0 141.15,-34.93 181.85,-91.16 6.48,-8.95 18.98,-10.95 27.93,-4.47 8.95,6.48 10.95,18.98 4.47,27.93 -23.5,32.46 -55.48,59.57 -92.49,78.41 -37.67,19.17 -79.78,29.3 -121.76,29.3 z"
           id="path60" />
        <path
           class="cls-6"
           d="m 950.97,802.25 c -41.81,0 -83.37,-10.17 -120.2,-29.4 -35.62,-18.6 -66.94,-45.68 -90.55,-78.31 -6.48,-8.95 -4.47,-21.45 4.48,-27.93 8.95,-6.48 21.45,-4.47 27.93,4.47 41.31,57.08 107.99,91.16 178.35,91.16 70.36,0 141.15,-34.93 181.85,-91.16 6.48,-8.95 18.98,-10.95 27.93,-4.47 8.95,6.48 10.95,18.98 4.47,27.93 -23.5,32.46 -55.48,59.57 -92.49,78.41 -37.67,19.17 -79.78,29.3 -121.76,29.3 z"
           id="path61" />
      </g>
      <g
         id="g63">
        <path
           class="cls-6"
           d="m 759.98,419.92 c -3.84,0 -7.73,-1.11 -11.16,-3.41 -9.16,-6.17 -11.58,-18.6 -5.41,-27.76 21.56,-32 52.48,-59.21 89.42,-78.7 37.28,-19.66 78.13,-30.05 118.14,-30.05 40.01,0 83.37,10.16 120.2,29.4 35.62,18.6 66.93,45.68 90.55,78.3 6.48,8.95 4.47,21.45 -4.47,27.93 -8.95,6.48 -21.45,4.47 -27.93,-4.47 -41.31,-57.08 -107.98,-91.15 -178.34,-91.15 -70.36,0 -137.68,36.61 -174.38,91.09 -3.86,5.73 -10.18,8.83 -16.61,8.83 z"
           id="path62" />
        <path
           class="cls-6"
           d="m 759.98,419.92 c -3.84,0 -7.73,-1.11 -11.16,-3.41 -9.16,-6.17 -11.58,-18.6 -5.41,-27.76 21.56,-32 52.48,-59.21 89.42,-78.7 37.28,-19.66 78.13,-30.05 118.14,-30.05 40.01,0 83.37,10.16 120.2,29.4 35.62,18.6 66.93,45.68 90.55,78.3 6.48,8.95 4.47,21.45 -4.47,27.93 -8.95,6.48 -21.45,4.47 -27.93,-4.47 -41.31,-57.08 -107.98,-91.15 -178.34,-91.15 -70.36,0 -137.68,36.61 -174.38,91.09 -3.86,5.73 -10.18,8.83 -16.61,8.83 z"
           id="path63" />
      </g>
      <g
         id="g65">
        <path
           class="cls-6"
           d="m 1166.93,678.3 c -3.39,0 -6.83,-0.86 -9.98,-2.68 L 992.15,580.47 C 977.52,572.02 968.79,556.9 968.79,540 c 0,-16.9 8.73,-32.02 23.36,-40.47 l 164.8,-95.15 c 9.57,-5.52 21.8,-2.25 27.32,7.32 5.52,9.57 2.25,21.8 -7.32,27.32 l -164.8,95.15 c -2.93,1.69 -3.36,4.38 -3.36,5.83 0,1.45 0.44,4.14 3.36,5.83 l 164.8,95.15 c 9.57,5.52 12.84,17.75 7.32,27.32 -3.7,6.42 -10.43,10 -17.34,10 z"
           id="path64" />
        <path
           class="cls-6"
           d="m 1166.93,678.3 c -3.39,0 -6.83,-0.86 -9.98,-2.68 L 992.15,580.47 C 977.52,572.02 968.79,556.9 968.79,540 c 0,-16.9 8.73,-32.02 23.36,-40.47 l 164.8,-95.15 c 9.57,-5.52 21.8,-2.25 27.32,7.32 5.52,9.57 2.25,21.8 -7.32,27.32 l -164.8,95.15 c -2.93,1.69 -3.36,4.38 -3.36,5.83 0,1.45 0.44,4.14 3.36,5.83 l 164.8,95.15 c 9.57,5.52 12.84,17.75 7.32,27.32 -3.7,6.42 -10.43,10 -17.34,10 z"
           id="path65" />
      </g>
      <g
         id="g67">
        <path
           class="cls-6"
           d="m 1191.68,632.45 c -2.27,0 -4.58,-0.39 -6.84,-1.21 l -169.53,-61.71 c -13.65,-4.97 -22.47,-17.56 -22.47,-32.09 0,-14.53 8.82,-27.12 22.47,-32.09 l 169.53,-61.71 c 10.38,-3.78 21.86,1.57 25.63,11.95 3.78,10.38 -1.57,21.86 -11.95,25.63 l -154.43,56.21 154.43,56.21 c 10.38,3.78 15.73,15.25 11.95,25.63 -2.96,8.12 -10.63,13.16 -18.8,13.17 z"
           id="path66" />
        <path
           class="cls-6"
           d="m 1191.68,632.45 c -2.27,0 -4.58,-0.39 -6.84,-1.21 l -169.53,-61.71 c -13.65,-4.97 -22.47,-17.56 -22.47,-32.09 0,-14.53 8.82,-27.12 22.47,-32.09 l 169.53,-61.71 c 10.38,-3.78 21.86,1.57 25.63,11.95 3.78,10.38 -1.57,21.86 -11.95,25.63 l -154.43,56.21 154.43,56.21 c 10.38,3.78 15.73,15.25 11.95,25.63 -2.96,8.12 -10.63,13.16 -18.8,13.17 z"
           id="path67" />
      </g>
      <g
         id="g69">
        <path
           class="cls-6"
           d="m 1198.45,607.37 c -1.71,0 -3.46,-0.22 -5.19,-0.69 l -146.91,-39.37 c -13.12,-3.52 -21.94,-15.01 -21.94,-28.59 0,-13.59 8.82,-25.08 21.94,-28.6 l 146.91,-39.37 c 10.67,-2.86 21.64,3.47 24.5,14.14 2.86,10.67 -3.47,21.64 -14.14,24.49 l -109.44,29.32 109.44,29.32 c 10.67,2.86 17,13.83 14.14,24.5 -2.39,8.93 -10.48,14.83 -19.31,14.83 z"
           id="path68" />
        <path
           class="cls-6"
           d="m 1198.45,607.37 c -1.71,0 -3.46,-0.22 -5.19,-0.69 l -146.91,-39.37 c -13.12,-3.52 -21.94,-15.01 -21.94,-28.59 0,-13.59 8.82,-25.08 21.94,-28.6 l 146.91,-39.37 c 10.67,-2.86 21.64,3.47 24.5,14.14 2.86,10.67 -3.47,21.64 -14.14,24.49 l -109.44,29.32 109.44,29.32 c 10.67,2.86 17,13.83 14.14,24.5 -2.39,8.93 -10.48,14.83 -19.31,14.83 z"
           id="path69" />
      </g>
      <g
         id="g71">
        <path
           class="cls-6"
           d="m 736.58,678.3 c -6.91,0 -13.63,-3.59 -17.34,-10 -5.52,-9.57 -2.25,-21.8 7.32,-27.32 l 164.8,-95.15 c 2.93,-1.69 3.36,-4.38 3.36,-5.83 0,-1.45 -0.44,-4.14 -3.36,-5.83 l -164.8,-95.15 c -9.57,-5.52 -12.84,-17.75 -7.32,-27.32 5.52,-9.57 17.75,-12.85 27.32,-7.32 l 164.8,95.15 c 14.63,8.45 23.36,23.57 23.36,40.47 0,16.9 -8.73,32.02 -23.36,40.47 l -164.8,95.15 c -3.15,1.82 -6.59,2.68 -9.98,2.68 z"
           id="path70" />
        <path
           class="cls-6"
           d="m 736.58,678.3 c -6.91,0 -13.63,-3.59 -17.34,-10 -5.52,-9.57 -2.25,-21.8 7.32,-27.32 l 164.8,-95.15 c 2.93,-1.69 3.36,-4.38 3.36,-5.83 0,-1.45 -0.44,-4.14 -3.36,-5.83 l -164.8,-95.15 c -9.57,-5.52 -12.84,-17.75 -7.32,-27.32 5.52,-9.57 17.75,-12.85 27.32,-7.32 l 164.8,95.15 c 14.63,8.45 23.36,23.57 23.36,40.47 0,16.9 -8.73,32.02 -23.36,40.47 l -164.8,95.15 c -3.15,1.82 -6.59,2.68 -9.98,2.68 z"
           id="path71" />
      </g>
      <g
         id="g73">
        <path
           class="cls-6"
           d="m 714.32,635.01 c -8.17,0 -15.84,-5.04 -18.8,-13.17 -3.78,-10.38 1.57,-21.86 11.95,-25.63 L 861.89,540 707.47,483.79 c -10.38,-3.78 -15.73,-15.25 -11.95,-25.63 3.78,-10.38 15.26,-15.73 25.63,-11.95 l 169.53,61.71 c 13.65,4.97 22.47,17.56 22.47,32.09 0,14.53 -8.82,27.12 -22.47,32.09 l -169.53,61.71 c -2.26,0.82 -4.57,1.21 -6.84,1.21 z"
           id="path72" />
        <path
           class="cls-6"
           d="m 714.32,635.01 c -8.17,0 -15.84,-5.04 -18.8,-13.17 -3.78,-10.38 1.57,-21.86 11.95,-25.63 L 861.89,540 707.47,483.79 c -10.38,-3.78 -15.73,-15.25 -11.95,-25.63 3.78,-10.38 15.26,-15.73 25.63,-11.95 l 169.53,61.71 c 13.65,4.97 22.47,17.56 22.47,32.09 0,14.53 -8.82,27.12 -22.47,32.09 l -169.53,61.71 c -2.26,0.82 -4.57,1.21 -6.84,1.21 z"
           id="path73" />
      </g>
      <g
         id="g75">
        <path
           class="cls-6"
           d="m 707.56,607.36 c -8.83,0 -16.91,-5.89 -19.31,-14.83 -2.86,-10.67 3.47,-21.64 14.14,-24.5 L 811.83,538.71 702.39,509.39 c -10.67,-2.86 -17,-13.83 -14.14,-24.49 2.86,-10.66 13.83,-17 24.49,-14.14 l 146.91,39.37 c 13.12,3.52 21.94,15.01 21.94,28.59 0,13.58 -8.82,25.08 -21.94,28.59 l -146.91,39.37 c -1.73,0.46 -3.48,0.69 -5.19,0.69 z"
           id="path74" />
        <path
           class="cls-6"
           d="m 707.56,607.36 c -8.83,0 -16.91,-5.89 -19.31,-14.83 -2.86,-10.67 3.47,-21.64 14.14,-24.5 L 811.83,538.71 702.39,509.39 c -10.67,-2.86 -17,-13.83 -14.14,-24.49 2.86,-10.66 13.83,-17 24.49,-14.14 l 146.91,39.37 c 13.12,3.52 21.94,15.01 21.94,28.59 0,13.58 -8.82,25.08 -21.94,28.59 l -146.91,39.37 c -1.73,0.46 -3.48,0.69 -5.19,0.69 z"
           id="path75" />
      </g>
      <g
         id="g77">
        <path
           class="cls-6"
           d="m 983.72,270.57 h -65.49 c -11.05,0 -20,-8.95 -20,-20 0,-11.05 8.95,-20 20,-20 h 65.49 c 11.05,0 20,8.95 20,20 0,11.05 -8.95,20 -20,20 z"
           id="path76" />
        <path
           class="cls-6"
           d="m 983.72,270.57 h -65.49 c -11.05,0 -20,-8.95 -20,-20 0,-11.05 8.95,-20 20,-20 h 65.49 c 11.05,0 20,8.95 20,20 0,11.05 -8.95,20 -20,20 z"
           id="path77" />
      </g>
      <g
         id="g79">
        <path
           class="cls-6"
           d="m 950.97,320 c -11.05,0 -20,-8.95 -20,-20 v -35.85 c 0,-11.05 8.95,-20 20,-20 11.05,0 20,8.95 20,20 V 300 c 0,11.05 -8.95,20 -20,20 z"
           id="path78" />
        <path
           class="cls-6"
           d="m 950.97,320 c -11.05,0 -20,-8.95 -20,-20 v -35.85 c 0,-11.05 8.95,-20 20,-20 11.05,0 20,8.95 20,20 V 300 c 0,11.05 -8.95,20 -20,20 z"
           id="path79" />
      </g>
      <g
         id="g81">
        <path
           class="cls-6"
           d="m 950.98,785.08 c -51.76,0 -101.25,-16.12 -143.12,-46.61 -5.4,-3.93 -8.48,-10.3 -8.21,-16.98 0.27,-6.68 3.86,-12.78 9.56,-16.26 l 93.01,-56.77 c 10.99,-6.71 17.82,-18.88 17.82,-31.76 v -71.1 c 0,-9.32 -5.01,-18.01 -13.09,-22.67 l -57.84,-33.4 c -6.5,-3.75 -10.35,-10.83 -9.97,-18.33 0.38,-7.5 4.92,-14.15 11.77,-17.23 8.54,-3.84 17.57,-5.71 27.61,-5.71 13.59,0 26.56,3.47 39.1,6.83 11.51,3.08 22.39,5.99 32.68,5.99 10.29,0 21.2,-2.92 32.76,-6 12.61,-3.37 25.65,-6.85 39.29,-6.85 10.05,0 19.07,1.86 27.59,5.69 6.85,3.08 11.4,9.73 11.78,17.23 0.38,7.5 -3.47,14.58 -9.97,18.33 l -57.84,33.39 c -8.07,4.66 -13.09,13.35 -13.09,22.67 v 69.44 c 0,13.38 7.23,25.79 18.87,32.38 l 96.41,54.6 c 5.85,3.31 9.64,9.34 10.1,16.05 0.46,6.71 -2.49,13.19 -7.83,17.27 -42.75,32.57 -93.72,49.79 -147.38,49.79 z"
           id="path80" />
        <path
           class="cls-6"
           d="m 950.98,785.08 c -51.76,0 -101.25,-16.12 -143.12,-46.61 -5.4,-3.93 -8.48,-10.3 -8.21,-16.98 0.27,-6.68 3.86,-12.78 9.56,-16.26 l 93.01,-56.77 c 10.99,-6.71 17.82,-18.88 17.82,-31.76 v -71.1 c 0,-9.32 -5.01,-18.01 -13.09,-22.67 l -57.84,-33.4 c -6.5,-3.75 -10.35,-10.83 -9.97,-18.33 0.38,-7.5 4.92,-14.15 11.77,-17.23 8.54,-3.84 17.57,-5.71 27.61,-5.71 13.59,0 26.56,3.47 39.1,6.83 11.51,3.08 22.39,5.99 32.68,5.99 10.29,0 21.2,-2.92 32.76,-6 12.61,-3.37 25.65,-6.85 39.29,-6.85 10.05,0 19.07,1.86 27.59,5.69 6.85,3.08 11.4,9.73 11.78,17.23 0.38,7.5 -3.47,14.58 -9.97,18.33 l -57.84,33.39 c -8.07,4.66 -13.09,13.35 -13.09,22.67 v 69.44 c 0,13.38 7.23,25.79 18.87,32.38 l 96.41,54.6 c 5.85,3.31 9.64,9.34 10.1,16.05 0.46,6.71 -2.49,13.19 -7.83,17.27 -42.75,32.57 -93.72,49.79 -147.38,49.79 z"
           id="path81" />
      </g>
      <g
         id="g83">
        <path
           class="cls-6"
           d="m 818.47,350.61 c -6.91,0 -13.63,-3.59 -17.34,-10 l -8.93,-15.47 c -5.52,-9.57 -2.25,-21.8 7.32,-27.32 9.57,-5.52 21.8,-2.25 27.32,7.32 l 8.93,15.47 c 5.52,9.57 2.25,21.8 -7.32,27.32 -3.15,1.82 -6.59,2.68 -9.98,2.68 z"
           id="path82" />
        <path
           class="cls-6"
           d="m 818.47,350.61 c -6.91,0 -13.63,-3.59 -17.34,-10 l -8.93,-15.47 c -5.52,-9.57 -2.25,-21.8 7.32,-27.32 9.57,-5.52 21.8,-2.25 27.32,7.32 l 8.93,15.47 c 5.52,9.57 2.25,21.8 -7.32,27.32 -3.15,1.82 -6.59,2.68 -9.98,2.68 z"
           id="path83" />
      </g>
      <g
         id="g85">
        <path
           class="cls-6"
           d="m 950.97,349.71 c -11.05,0 -20,-8.95 -20,-20 V 300 c 0,-11.05 8.95,-20 20,-20 11.05,0 20,8.95 20,20 v 29.71 c 0,11.05 -8.95,20 -20,20 z"
           id="path84" />
        <path
           class="cls-6"
           d="m 950.97,349.71 c -11.05,0 -20,-8.95 -20,-20 V 300 c 0,-11.05 8.95,-20 20,-20 11.05,0 20,8.95 20,20 v 29.71 c 0,11.05 -8.95,20 -20,20 z"
           id="path85" />
      </g>
      <g
         id="g87">
        <path
           class="cls-6"
           d="m 1016.71,362.08 c -1.71,0 -3.46,-0.22 -5.19,-0.69 -10.67,-2.86 -17,-13.83 -14.14,-24.49 l 8.07,-30.11 c 2.86,-10.67 13.83,-17 24.49,-14.14 10.67,2.86 17,13.83 14.14,24.49 l -8.07,30.11 c -2.39,8.94 -10.48,14.83 -19.31,14.83 z"
           id="path86" />
        <path
           class="cls-6"
           d="m 1016.71,362.08 c -1.71,0 -3.46,-0.22 -5.19,-0.69 -10.67,-2.86 -17,-13.83 -14.14,-24.49 l 8.07,-30.11 c 2.86,-10.67 13.83,-17 24.49,-14.14 10.67,2.86 17,13.83 14.14,24.49 l -8.07,30.11 c -2.39,8.94 -10.48,14.83 -19.31,14.83 z"
           id="path87" />
      </g>
      <g
         id="g89">
        <path
           class="cls-6"
           d="m 1076.37,390.14 c -3.39,0 -6.83,-0.86 -9.98,-2.68 -9.57,-5.52 -12.84,-17.75 -7.32,-27.32 L 1073.58,335 c 5.52,-9.57 17.75,-12.84 27.32,-7.32 9.57,5.52 12.84,17.75 7.32,27.32 l -14.51,25.14 c -3.7,6.42 -10.43,10 -17.34,10 z"
           id="path88" />
        <path
           class="cls-6"
           d="m 1076.37,390.14 c -3.39,0 -6.83,-0.86 -9.98,-2.68 -9.57,-5.52 -12.84,-17.75 -7.32,-27.32 L 1073.58,335 c 5.52,-9.57 17.75,-12.84 27.32,-7.32 9.57,5.52 12.84,17.75 7.32,27.32 l -14.51,25.14 c -3.7,6.42 -10.43,10 -17.34,10 z"
           id="path89" />
      </g>
      <g
         id="g91">
        <path
           class="cls-6"
           d="m 885.24,362.08 c -8.83,0 -16.91,-5.89 -19.31,-14.83 l -7.41,-27.65 c -2.86,-10.67 3.47,-21.64 14.14,-24.49 10.67,-2.86 21.64,3.47 24.49,14.14 l 7.41,27.65 c 2.86,10.67 -3.47,21.64 -14.14,24.49 -1.73,0.46 -3.48,0.69 -5.19,0.69 z"
           id="path90" />
        <path
           class="cls-6"
           d="m 885.24,362.08 c -8.83,0 -16.91,-5.89 -19.31,-14.83 l -7.41,-27.65 c -2.86,-10.67 3.47,-21.64 14.14,-24.49 10.67,-2.86 21.64,3.47 24.49,14.14 l 7.41,27.65 c 2.86,10.67 -3.47,21.64 -14.14,24.49 -1.73,0.46 -3.48,0.69 -5.19,0.69 z"
           id="path91" />
      </g>
      <g
         id="g93">
        <path
           class="cls-6"
           d="m 827.18,392.29 c -6.75,0 -13.34,-3.42 -17.11,-9.61 L 795.7,359.04 c -5.74,-9.44 -2.74,-21.74 6.7,-27.48 9.44,-5.74 21.74,-2.74 27.48,6.7 l 14.37,23.64 c 5.74,9.44 2.74,21.74 -6.7,27.48 -3.25,1.97 -6.83,2.91 -10.37,2.91 z"
           id="path92" />
        <path
           class="cls-6"
           d="m 827.18,392.29 c -6.75,0 -13.34,-3.42 -17.11,-9.61 L 795.7,359.04 c -5.74,-9.44 -2.74,-21.74 6.7,-27.48 9.44,-5.74 21.74,-2.74 27.48,6.7 l 14.37,23.64 c 5.74,9.44 2.74,21.74 -6.7,27.48 -3.25,1.97 -6.83,2.91 -10.37,2.91 z"
           id="path93" />
      </g>
    </g>
  </g>
  <g
     id="g109"
     transform="translate(-680.44,-215.57)">
    <path
       class="cls-8"
       d="m 1149.02,682.82 c -43.6,60.24 -118,99.43 -198.05,99.43 -80.05,0 -150.95,-39.19 -194.55,-99.43"
       id="path95" />
    <path
       class="cls-4"
       d="M 760,399.91 C 799.91,340.65 875.53,300 950.97,300 c 80.05,0 150.94,39.19 194.54,99.43"
       id="path96" />
    <path
       class="cls-2"
       d="m 1166.94,421.71 -164.8,95.15 c -17.82,10.29 -17.82,36 0,46.29 l 164.8,95.15"
       id="path97" />
    <path
       class="cls-9"
       d="m 1191.68,462.44 -169.53,61.71 c -12.41,4.52 -12.41,22.07 0,26.59 l 169.53,61.71"
       id="path98" />
    <path
       class="cls-9"
       d="m 1198.44,490.08 -146.91,39.37 c -9.49,2.54 -9.49,16.01 0,18.55 l 146.91,39.37"
       id="path99" />
    <path
       class="cls-2"
       d="m 736.56,658.29 164.8,-95.15 c 17.82,-10.29 17.82,-36 0,-46.29 L 736.56,421.7"
       id="path100" />
    <path
       class="cls-9"
       d="m 714.32,615 169.53,-61.71 c 12.41,-4.52 12.41,-22.07 0,-26.59 L 714.32,464.99"
       id="path101" />
    <path
       class="cls-9"
       d="m 707.57,587.36 146.91,-39.37 c 9.49,-2.54 9.49,-16.01 0,-18.55 L 707.57,490.07"
       id="path102" />
    <line
       class="cls-14"
       x1="918.22998"
       y1="250.57001"
       x2="983.71997"
       y2="250.57001"
       id="line102" />
    <line
       class="cls-4"
       x1="950.96997"
       y1="264.14999"
       x2="950.96997"
       y2="300"
       id="line103" />
    <path
       class="cls-16"
       d="m 960.81,614.99 v -69.44 c 0,-16.5 8.8,-31.74 23.09,-39.99 l 57.84,-33.39 c -27.9,-12.54 -58.95,8.92 -91.44,8.92 -32.49,0 -63.26,-21.44 -91.18,-8.88 l 57.84,33.4 c 14.29,8.25 23.09,23.49 23.09,39.99 v 71.1 c 0,19.94 -10.38,38.44 -27.4,48.83 l -93.01,56.77 c 36.98,26.93 82.33,42.78 131.35,42.78 49.02,0 97.59,-17 135.26,-45.7 l -96.41,-54.6 C 971.91,654.62 960.82,635.61 960.82,615 Z"
       id="path103" />
    <line
       class="cls-1"
       x1="809.52002"
       y1="315.14001"
       x2="818.46002"
       y2="330.60999"
       id="line104" />
    <line
       class="cls-13"
       x1="950.96997"
       y1="300"
       x2="950.96997"
       y2="329.70999"
       id="line105" />
    <line
       class="cls-13"
       x1="1024.76"
       y1="311.97"
       x2="1016.7"
       y2="342.07001"
       id="line106" />
    <line
       class="cls-13"
       x1="1090.9"
       y1="345"
       x2="1076.39"
       y2="370.13"
       id="line107" />
    <line
       class="cls-13"
       x1="877.84003"
       y1="314.42001"
       x2="885.25"
       y2="342.07001"
       id="line108" />
    <line
       class="cls-13"
       x1="812.78998"
       y1="348.64001"
       x2="827.15997"
       y2="372.29001"
       id="line109" />
  </g>
</svg>
